<svg width="15" height="15" viewBox="0 0 15 15" fill="none" xmlns="http://www.w3.org/2000/svg">
<g clip-path="url(#clip0_6314_7057)">
<path d="M7.57599 1.74208C7.15599 1.74208 6.76632 1.84708 6.40699 2.05708C6.04765 2.26708 5.76299 2.55174 5.55299 2.91108C5.34299 3.27041 5.23799 3.66008 5.23799 4.08008H4.04799C4.04799 3.44541 4.20432 2.85974 4.51699 2.32308C4.82965 1.78641 5.25432 1.36174 5.79099 1.04908C6.32765 0.736411 6.91332 0.580078 7.54799 0.580078C8.18265 0.580078 8.76832 0.736411 9.30499 1.04908C9.84165 1.36174 10.2663 1.78641 10.579 2.32308C10.8917 2.85974 11.048 3.44541 11.048 4.08008H13.344C13.68 4.08008 13.9647 4.19908 14.198 4.43708C14.4313 4.67508 14.548 4.96674 14.548 5.31208C14.548 5.38674 14.5433 5.45674 14.534 5.52208L13.232 13.0541C13.1573 13.4927 12.952 13.8567 12.616 14.1461C12.28 14.4354 11.8927 14.5801 11.454 14.5801H3.64199C3.20332 14.5801 2.81599 14.4354 2.47999 14.1461C2.14399 13.8567 1.93865 13.4927 1.86399 13.0541L0.561988 5.53608C0.505988 5.20008 0.573654 4.89208 0.764988 4.61208C0.956321 4.33208 1.21532 4.15941 1.54199 4.09408C1.60732 4.08474 1.67732 4.08008 1.75199 4.08008H9.91399C9.91399 3.66008 9.80899 3.27041 9.59899 2.91108C9.38899 2.55174 9.10432 2.26708 8.74499 2.05708C8.38565 1.84708 7.99599 1.74208 7.57599 1.74208ZM13.344 5.24208H1.75199C1.74265 5.24208 1.72865 5.26074 1.70999 5.29808V5.32608L3.01199 12.8581C3.03999 13.0074 3.10532 13.1334 3.20799 13.2361C3.31065 13.3387 3.43199 13.3947 3.57199 13.4041L3.64199 13.4181H11.454C11.594 13.4181 11.7223 13.3737 11.839 13.2851C11.9557 13.1964 12.0327 13.0774 12.07 12.9281L13.386 5.31208C13.386 5.27474 13.3767 5.25608 13.358 5.25608L13.344 5.24208Z" fill="white"/>
</g>
<defs>
<clipPath id="clip0_6314_7057">
<rect width="14" height="14" fill="white" transform="matrix(1 0 0 -1 0.421875 14.5801)"/>
</clipPath>
</defs>
</svg>
