<svg width="20" height="20" viewBox="0 0 29 31" fill="none" xmlns="http://www.w3.org/2000/svg">
<path d="M2.01306 15.308C2.30773 15.308 2.5684 15.2004 2.79506 14.985C3.02173 14.7697 3.13506 14.492 3.13506 14.152V12.758C3.13506 11.9194 3.34473 11.1544 3.76406 10.463C4.1834 9.77168 4.7444 9.22202 5.44706 8.81402C6.14973 8.40602 6.89773 8.20202 7.69106 8.20202H24.9631L21.1551 12.044C20.9284 12.248 20.8151 12.503 20.8151 12.809C20.8151 13.115 20.9284 13.3814 21.1551 13.608C21.3364 13.7894 21.5631 13.88 21.8351 13.88C21.9711 13.88 22.1071 13.8517 22.2431 13.795C22.3791 13.7384 22.4811 13.676 22.5491 13.608L28.2271 7.93002C28.2724 7.88468 28.3177 7.82802 28.3631 7.76002C28.4084 7.69202 28.4537 7.65802 28.4991 7.65802C28.6351 7.36335 28.6351 7.08002 28.4991 6.80802C28.4991 6.71735 28.4707 6.64368 28.4141 6.58702C28.3574 6.53035 28.2951 6.50202 28.2271 6.50202L22.5491 0.858017C22.3451 0.63135 22.0901 0.518017 21.7841 0.518017C21.4781 0.518017 21.2117 0.63135 20.9851 0.858017C20.7584 1.08468 20.6507 1.34535 20.6621 1.64002C20.6734 1.93468 20.7811 2.18402 20.9851 2.38802L24.8271 6.23002H7.69106C6.46706 6.23002 5.33373 6.53035 4.29106 7.13102C3.2484 7.73168 2.42106 8.55335 1.80906 9.59602C1.19706 10.6387 0.891063 11.7833 0.891063 13.03V14.458C0.891063 14.6167 1.01006 14.798 1.24806 15.002C1.48606 15.206 1.74106 15.308 2.01306 15.308ZM27.5131 15.988C27.2184 15.988 26.9577 16.0957 26.7311 16.311C26.5044 16.5264 26.3911 16.804 26.3911 17.144V18.538C26.3911 19.3767 26.1814 20.1417 25.7621 20.833C25.3427 21.5244 24.7817 22.074 24.0791 22.482C23.3764 22.89 22.6284 23.094 21.8351 23.094H4.56306L8.40506 19.252C8.60906 19.048 8.71106 18.793 8.71106 18.487C8.71106 18.181 8.60906 17.9147 8.40506 17.688C8.20106 17.4614 7.9404 17.3537 7.62306 17.365C7.30573 17.3764 7.04506 17.484 6.84106 17.688L1.16306 23.366C1.11773 23.4114 1.0724 23.468 1.02706 23.536C0.981729 23.604 0.936396 23.638 0.891063 23.638C0.755062 23.9327 0.755062 24.216 0.891063 24.488C0.891063 24.5787 0.919396 24.6524 0.976063 24.709C1.03273 24.7657 1.09506 24.794 1.16306 24.794L6.84106 30.472C7.0224 30.6534 7.25473 30.744 7.53806 30.744C7.8214 30.744 8.05373 30.6534 8.23506 30.472C8.46173 30.2454 8.57506 29.979 8.57506 29.673C8.57506 29.367 8.46173 29.112 8.23506 28.908L4.42706 25.066H21.8351C23.0591 25.066 24.1924 24.7657 25.2351 24.165C26.2777 23.5644 27.1051 22.7427 27.7171 21.7C28.3291 20.6574 28.6351 19.5127 28.6351 18.266V16.838C28.6351 16.634 28.5217 16.4414 28.2951 16.26C28.0684 16.0787 27.8077 15.988 27.5131 15.988Z" fill="#030712"/>
</svg>
