<svg width="26" height="27" viewBox="0 0 26 27" fill="none" xmlns="http://www.w3.org/2000/svg">
<path d="M20.5182 5.23403H3.20216C2.66482 5.23403 2.16216 5.36403 1.69416 5.62403C1.22616 5.88403 0.85349 6.23936 0.576156 6.69003C0.298823 7.1407 0.160156 7.6347 0.160156 8.17203V18.988C0.160156 19.5254 0.29449 20.028 0.563156 20.496C0.831823 20.964 1.19582 21.3367 1.65516 21.614C2.11449 21.8914 2.63016 22.03 3.20216 22.03H20.5182C21.0555 22.03 21.5582 21.8957 22.0262 21.627C22.4942 21.3584 22.8668 20.9944 23.1442 20.535C23.4215 20.0757 23.5602 19.56 23.5602 18.988V8.17203C23.5602 7.6347 23.4215 7.1407 23.1442 6.69003C22.8668 6.23936 22.4942 5.88403 22.0262 5.62403C21.5582 5.36403 21.0555 5.23403 20.5182 5.23403ZM3.20216 6.87203H20.5182C20.8995 6.87203 21.2115 7.00203 21.4542 7.26203C21.6968 7.52203 21.8182 7.82536 21.8182 8.17203V10.538H1.90216V8.17203C1.90216 7.7907 2.02349 7.4787 2.26616 7.23603C2.50882 6.99336 2.82082 6.87203 3.20216 6.87203ZM20.5182 20.392H3.20216C2.83816 20.392 2.53049 20.2577 2.27916 19.989C2.02782 19.7204 1.90216 19.4214 1.90216 19.092V12.384H21.9482V18.988C21.8788 19.3867 21.7185 19.7204 21.4672 19.989C21.2158 20.2577 20.8995 20.392 20.5182 20.392Z" fill="#6B7280"/>
</svg>
