<svg width="24" height="16" viewBox="0 0 24 16" fill="none" xmlns="http://www.w3.org/2000/svg">
<mask id="mask0_6314_5092" style="mask-type:luminance" maskUnits="userSpaceOnUse" x="0" y="0" width="24" height="16">
<path d="M24 0.340088H0V15.1401H24V0.340088Z" fill="white"/>
</mask>
<g mask="url(#mask0_6314_5092)">
<path d="M7.4 15.1401C11.4869 15.1401 14.8 11.827 14.8 7.74009C14.8 3.65318 11.4869 0.340088 7.4 0.340088C3.31309 0.340088 0 3.65318 0 7.74009C0 11.827 3.31309 15.1401 7.4 15.1401Z" fill="#DD3D31"/>
<path d="M16.5992 15.1401C20.6861 15.1401 23.9992 11.827 23.9992 7.74009C23.9992 3.65318 20.6861 0.340088 16.5992 0.340088C12.5123 0.340088 9.19922 3.65318 9.19922 7.74009C9.19922 11.827 12.5123 15.1401 16.5992 15.1401Z" fill="#EEB046"/>
<path fill-rule="evenodd" clip-rule="evenodd" d="M11.999 13.64C15.199 11.14 15.799 6.43994 13.299 3.23994C12.899 2.73994 12.499 2.33994 11.999 1.93994C8.79892 4.43994 8.19892 9.13994 10.699 12.34C11.099 12.84 11.499 13.24 11.999 13.64Z" fill="#EF7D2F"/>
</g>
</svg>
