<svg width="20" height="21" viewBox="0 0 20 21" fill="none" xmlns="http://www.w3.org/2000/svg">
<path d="M15.8202 3.37022H2.50016C2.08682 3.37022 1.70016 3.47021 1.34016 3.67022C0.980156 3.87022 0.69349 4.14355 0.480156 4.49022C0.266823 4.83688 0.160156 5.21688 0.160156 5.63021V15.6302C0.160156 16.0435 0.26349 16.4302 0.470156 16.7902C0.676823 17.1502 0.956823 17.4369 1.31016 17.6502C1.66349 17.8635 2.06016 17.9702 2.50016 17.9702H15.8202C16.2335 17.9702 16.6202 17.8669 16.9802 17.6602C17.3402 17.4535 17.6268 17.1735 17.8402 16.8202C18.0535 16.4669 18.1602 16.0702 18.1602 15.6302V5.63021C18.1602 5.21688 18.0535 4.83688 17.8402 4.49022C17.6268 4.14355 17.3402 3.87022 16.9802 3.67022C16.6202 3.47021 16.2335 3.37022 15.8202 3.37022ZM2.50016 4.63021H15.8202C16.1135 4.63021 16.3535 4.73022 16.5402 4.93021C16.7268 5.13021 16.8202 5.36355 16.8202 5.63021V6.13021L9.66016 10.7102C9.48682 10.7902 9.30682 10.8302 9.12016 10.8302C8.93349 10.8302 8.75349 10.7902 8.58016 10.7102L1.50016 6.13021V5.63021C1.50016 5.33688 1.59349 5.09688 1.78016 4.91022C1.96682 4.72355 2.20682 4.63021 2.50016 4.63021ZM15.8202 16.7102H2.50016C2.22016 16.7102 1.98349 16.6069 1.79016 16.4002C1.59682 16.1935 1.50016 15.9635 1.50016 15.7102V7.63021L8.00016 11.7902C8.28016 12.0169 8.66682 12.1302 9.16016 12.1302C9.65349 12.1302 10.0402 12.0169 10.3202 11.7902L16.8202 7.63021V15.6302C16.8202 15.9235 16.7268 16.1769 16.5402 16.3902C16.3535 16.6035 16.1135 16.7102 15.8202 16.7102Z" fill="#9CA3AF"/>
</svg>
