<svg width="25" height="21" viewBox="0 0 25 21" fill="none" xmlns="http://www.w3.org/2000/svg">
<path d="M6.78906 2.40801C6.00906 2.40801 5.2854 2.60301 4.61806 2.99301C3.95073 3.38301 3.42206 3.91168 3.03206 4.57901C2.64206 5.24634 2.44706 5.97001 2.44706 6.75001C2.44706 8.53534 2.9584 10.234 3.98106 11.846C4.81306 13.198 5.9744 14.4633 7.46506 15.642C8.79973 16.734 10.3337 17.696 12.0671 18.528L12.1971 18.58C13.9824 17.7307 15.5771 16.7427 16.9811 15.616L16.9291 15.642C18.4197 14.4633 19.5811 13.198 20.4131 11.846C21.4357 10.234 21.9471 8.53534 21.9471 6.75001C21.9471 5.97001 21.7521 5.24634 21.3621 4.57901C20.9721 3.91168 20.4434 3.38301 19.7761 2.99301C19.1087 2.60301 18.3851 2.40801 17.6051 2.40801C16.9117 2.40801 16.2574 2.55968 15.6421 2.86301C15.0267 3.16634 14.5067 3.58234 14.0821 4.11101C13.6574 4.63968 13.3844 5.23334 13.2631 5.89201C13.2111 6.13468 13.0854 6.33834 12.8861 6.50301C12.6867 6.66768 12.4571 6.75001 12.1971 6.75001C11.9371 6.75001 11.7074 6.66768 11.5081 6.50301C11.3087 6.33834 11.1831 6.13468 11.1311 5.89201C11.0097 5.23334 10.7367 4.63968 10.3121 4.11101C9.8874 3.58234 9.3674 3.16634 8.75206 2.86301C8.13673 2.55968 7.4824 2.40801 6.78906 2.40801ZM12.1971 20.842C12.0411 20.8247 11.8851 20.79 11.7291 20.738C11.6424 20.7033 11.4951 20.634 11.2871 20.53C9.3804 19.6287 7.6384 18.5453 6.06106 17.28L6.11306 17.332C4.43173 16.0147 3.10573 14.576 2.13506 13.016C0.904396 11.04 0.289062 8.95134 0.289062 6.75001C0.289062 5.57134 0.579396 4.48368 1.16006 3.48701C1.74073 2.49034 2.5294 1.70168 3.52606 1.12101C4.52273 0.540344 5.6104 0.25001 6.78906 0.25001C7.88106 0.25001 8.8994 0.497009 9.84406 0.991011C10.7887 1.48501 11.5731 2.15668 12.1971 3.00601V3.03201C12.8211 2.16534 13.6054 1.48501 14.5501 0.991011C15.4947 0.497009 16.5131 0.25001 17.6051 0.25001C18.7837 0.25001 19.8714 0.540344 20.8681 1.12101C21.8647 1.70168 22.6534 2.49034 23.2341 3.48701C23.8147 4.48368 24.1051 5.57134 24.1051 6.75001C24.1051 8.95134 23.4897 11.04 22.2591 13.016C21.2884 14.576 19.9624 16.0147 18.2811 17.332C16.7384 18.5453 15.0657 19.594 13.2631 20.478L13.1071 20.53C12.6911 20.738 12.3877 20.842 12.1971 20.842Z" fill="#030712"/>
</svg>
