<svg width="19" height="19" viewBox="0 0 19 19" fill="none" xmlns="http://www.w3.org/2000/svg">
<g clip-path="url(#clip0_6314_4920)">
<path d="M5.75416 2.56799H2.01016C1.62616 2.56799 1.30516 2.68799 1.04716 2.92799C0.789156 3.16799 0.660156 3.47399 0.660156 3.84599V7.58999C0.660156 7.96199 0.792156 8.27999 1.05616 8.54399C1.32016 8.80799 1.63816 8.93999 2.01016 8.93999H5.75416C6.13816 8.93999 6.45916 8.80799 6.71716 8.54399C6.97516 8.27999 7.10416 7.96199 7.10416 7.58999V3.84599C7.10416 3.47399 6.97516 3.16799 6.71716 2.92799C6.45916 2.68799 6.13816 2.56799 5.75416 2.56799ZM5.89816 7.58999C5.89816 7.62599 5.88316 7.65899 5.85316 7.68899C5.82316 7.71899 5.79016 7.73399 5.75416 7.73399H2.01016C1.97416 7.76999 1.93816 7.76699 1.90216 7.72499C1.86616 7.68299 1.84816 7.63799 1.84816 7.58999V3.84599C1.84816 3.79799 1.86616 3.75899 1.90216 3.72899C1.93816 3.69899 1.97416 3.68399 2.01016 3.68399H5.75416C5.79016 3.68399 5.82316 3.69899 5.85316 3.72899C5.88316 3.75899 5.89816 3.79799 5.89816 3.84599V7.58999ZM13.9982 2.56799H10.2542C9.88216 2.56799 9.56416 2.69699 9.30016 2.95499C9.03616 3.21299 8.90416 3.53399 8.90416 3.91799V7.66199C8.90416 8.03399 9.03616 8.35199 9.30016 8.61599C9.56416 8.87999 9.88216 9.01199 10.2542 9.01199H13.9982C14.3822 9.01199 14.7032 8.87999 14.9612 8.61599C15.2192 8.35199 15.3482 8.03399 15.3482 7.66199V3.84599C15.3482 3.47399 15.2192 3.16799 14.9612 2.92799C14.7032 2.68799 14.3822 2.56799 13.9982 2.56799ZM14.1602 7.58999C14.1602 7.62599 14.1452 7.65899 14.1152 7.68899C14.0852 7.71899 14.0462 7.73399 13.9982 7.73399H10.2542C10.2182 7.73399 10.1852 7.71899 10.1552 7.68899C10.1252 7.65899 10.1102 7.62599 10.1102 7.58999V3.84599C10.1102 3.79799 10.1252 3.75899 10.1552 3.72899C10.1852 3.69899 10.2182 3.68399 10.2542 3.68399H13.9982C14.0462 3.68399 14.0852 3.69899 14.1152 3.72899C14.1452 3.75899 14.1602 3.79799 14.1602 3.84599V7.58999ZM13.9982 10.812H10.2542C9.88216 10.812 9.56416 10.941 9.30016 11.199C9.03616 11.457 8.90416 11.778 8.90416 12.162V15.906C8.90416 16.29 9.03616 16.614 9.30016 16.878C9.56416 17.142 9.88216 17.274 10.2542 17.274H13.9982C14.3702 17.274 14.6882 17.142 14.9522 16.878C15.2162 16.614 15.3482 16.29 15.3482 15.906V12.162C15.3482 11.754 15.2192 11.427 14.9612 11.181C14.7032 10.935 14.3822 10.812 13.9982 10.812ZM14.1602 15.834C14.1602 15.87 14.1452 15.906 14.1152 15.942C14.0852 15.978 14.0462 15.996 13.9982 15.996H10.2542C10.2182 15.996 10.1852 15.978 10.1552 15.942C10.1252 15.906 10.1102 15.87 10.1102 15.834V12.09C10.1102 12.054 10.1252 12.021 10.1552 11.991C10.1852 11.961 10.2182 11.946 10.2542 11.946H13.9982C14.0462 11.946 14.0852 11.961 14.1152 11.991C14.1452 12.021 14.1602 12.054 14.1602 12.09V15.834ZM5.75416 10.812H2.01016C1.63816 10.812 1.32016 10.941 1.05616 11.199C0.792156 11.457 0.660156 11.778 0.660156 12.162V15.906C0.660156 16.29 0.792156 16.614 1.05616 16.878C1.32016 17.142 1.63816 17.274 2.01016 17.274H5.75416C6.12616 17.274 6.44416 17.142 6.70816 16.878C6.97216 16.614 7.10416 16.29 7.10416 15.906V12.162C7.10416 11.754 6.97516 11.427 6.71716 11.181C6.45916 10.935 6.13816 10.812 5.75416 10.812ZM5.89816 15.834C5.89816 15.87 5.88316 15.906 5.85316 15.942C5.82316 15.978 5.79016 15.996 5.75416 15.996H2.01016C1.97416 15.996 1.93816 15.978 1.90216 15.942C1.86616 15.906 1.84816 15.87 1.84816 15.834V12.09C1.84816 12.054 1.86616 12.021 1.90216 11.991C1.93816 11.961 1.97416 11.946 2.01016 11.946H5.75416C5.79016 11.946 5.82316 11.961 5.85316 11.991C5.88316 12.021 5.89816 12.054 5.89816 12.09V15.834Z" fill="#111827"/>
</g>
<defs>
<clipPath id="clip0_6314_4920">
<rect width="18" height="18" fill="white" transform="matrix(1 0 0 -1 0.5 18.84)"/>
</clipPath>
</defs>
</svg>
