<svg width="19" height="19" viewBox="0 0 19 19" fill="none" xmlns="http://www.w3.org/2000/svg">
<g clip-path="url(#clip0_6314_4923)">
<path d="M5.75416 2.56799H2.01016C1.62616 2.56799 1.30516 2.68799 1.04716 2.92799C0.789156 3.16799 0.660156 3.47399 0.660156 3.84599V7.58999C0.660156 7.96199 0.792156 8.27999 1.05616 8.54399C1.32016 8.80799 1.63816 8.93999 2.01016 8.93999H5.75416C6.13816 8.93999 6.45916 8.80799 6.71716 8.54399C6.97516 8.27999 7.10416 7.96199 7.10416 7.58999V3.84599C7.10416 3.47399 6.97516 3.16799 6.71716 2.92799C6.45916 2.68799 6.13816 2.56799 5.75416 2.56799ZM5.89816 7.58999C5.89816 7.62599 5.88316 7.65899 5.85316 7.68899C5.82316 7.71899 5.79016 7.73399 5.75416 7.73399H2.01016C1.97416 7.76999 1.93816 7.76699 1.90216 7.72499C1.86616 7.68299 1.84816 7.63799 1.84816 7.58999V3.84599C1.84816 3.79799 1.86616 3.75899 1.90216 3.72899C1.93816 3.69899 1.97416 3.68399 2.01016 3.68399H5.75416C5.79016 3.68399 5.82316 3.69899 5.85316 3.72899C5.88316 3.75899 5.89816 3.79799 5.89816 3.84599V7.58999ZM5.75416 10.812H2.01016C1.63816 10.812 1.32016 10.941 1.05616 11.199C0.792156 11.457 0.660156 11.778 0.660156 12.162V15.906C0.660156 16.29 0.792156 16.614 1.05616 16.878C1.32016 17.142 1.63816 17.274 2.01016 17.274H5.75416C6.12616 17.274 6.44416 17.142 6.70816 16.878C6.97216 16.614 7.10416 16.29 7.10416 15.906V12.162C7.10416 11.754 6.97516 11.427 6.71716 11.181C6.45916 10.935 6.13816 10.812 5.75416 10.812ZM5.89816 15.834C5.89816 15.87 5.88316 15.906 5.85316 15.942C5.82316 15.978 5.79016 15.996 5.75416 15.996H2.01016C1.97416 15.996 1.93816 15.978 1.90216 15.942C1.86616 15.906 1.84816 15.87 1.84816 15.834V12.09C1.84816 12.054 1.86616 12.021 1.90216 11.991C1.93816 11.961 1.97416 11.946 2.01016 11.946H5.75416C5.79016 11.946 5.82316 11.961 5.85316 11.991C5.88316 12.021 5.89816 12.054 5.89816 12.09V15.834ZM9.49816 4.43999H14.7542C14.9102 4.43999 15.0482 4.38299 15.1682 4.26899C15.2882 4.15499 15.3482 4.01399 15.3482 3.84599C15.3482 3.67799 15.2912 3.54599 15.1772 3.44999C15.0632 3.35399 14.9222 3.30599 14.7542 3.30599H9.49816C9.34216 3.30599 9.20416 3.36299 9.08416 3.47699C8.96416 3.59099 8.90416 3.73799 8.90416 3.91799C8.90416 4.09799 8.96116 4.22999 9.07516 4.31399C9.18916 4.39799 9.33016 4.43999 9.49816 4.43999ZM14.7542 7.06799H9.49816C9.34216 7.06799 9.20416 7.12199 9.08416 7.22999C8.96416 7.33799 8.90416 7.48499 8.90416 7.67099C8.90416 7.85699 8.95816 8.00099 9.06616 8.10299C9.17416 8.20499 9.31816 8.25599 9.49816 8.25599H14.7542C14.9102 8.25599 15.0482 8.20199 15.1682 8.09399C15.2882 7.98599 15.3482 7.84199 15.3482 7.66199C15.3482 7.48199 15.2882 7.33799 15.1682 7.22999C15.0482 7.12199 14.9102 7.06799 14.7542 7.06799ZM14.7542 11.568H9.49816C9.34216 11.568 9.20416 11.622 9.08416 11.73C8.96416 11.838 8.90416 11.985 8.90416 12.171C8.90416 12.357 8.95816 12.501 9.06616 12.603C9.17416 12.705 9.31816 12.756 9.49816 12.756H14.7542C14.9102 12.756 15.0482 12.702 15.1682 12.594C15.2882 12.486 15.3482 12.342 15.3482 12.162C15.3482 11.982 15.2882 11.838 15.1682 11.73C15.0482 11.622 14.9102 11.568 14.7542 11.568ZM14.7542 15.312H9.49816C9.34216 15.312 9.20416 15.369 9.08416 15.483C8.96416 15.597 8.90416 15.741 8.90416 15.915C8.90416 16.089 8.95816 16.233 9.06616 16.347C9.17416 16.461 9.31816 16.518 9.49816 16.518H14.7542C14.9102 16.518 15.0482 16.461 15.1682 16.347C15.2882 16.233 15.3482 16.086 15.3482 15.906C15.3482 15.726 15.2882 15.582 15.1682 15.474C15.0482 15.366 14.9102 15.312 14.7542 15.312Z" fill="#6B7280"/>
</g>
<defs>
<clipPath id="clip0_6314_4923">
<rect width="18" height="18" fill="white" transform="matrix(1 0 0 -1 0.5 18.84)"/>
</clipPath>
</defs>
</svg>
