<svg width="17" height="17" viewBox="0 0 17 17" fill="none" xmlns="http://www.w3.org/2000/svg">
<path d="M8.66816 4.43009C8.01749 4.43009 7.41749 4.59275 6.86816 4.91809C6.31882 5.24342 5.88149 5.68075 5.55616 6.23009C5.23082 6.77942 5.06816 7.37942 5.06816 8.03009C5.06816 8.68075 5.23082 9.28075 5.55616 9.83009C5.88149 10.3794 6.31882 10.8141 6.86816 11.1341C7.41749 11.4541 8.01749 11.6141 8.66816 11.6141C9.31882 11.6141 9.91882 11.4541 10.4682 11.1341C11.0175 10.8141 11.4522 10.3794 11.7722 9.83009C12.0922 9.28075 12.2522 8.68075 12.2522 8.03009C12.2522 7.37942 12.0922 6.77942 11.7722 6.23009C11.4522 5.68075 11.0175 5.24342 10.4682 4.91809C9.91882 4.59275 9.31882 4.43009 8.66816 4.43009ZM8.66816 10.3661C8.24149 10.3661 7.84949 10.2621 7.49216 10.0541C7.13482 9.84609 6.85216 9.56075 6.64416 9.19809C6.43616 8.83542 6.33216 8.44609 6.33216 8.03009C6.33216 7.61409 6.43616 7.22475 6.64416 6.86209C6.85216 6.49942 7.13482 6.21409 7.49216 6.00609C7.84949 5.79809 8.24149 5.69409 8.66816 5.69409C9.09482 5.69409 9.48682 5.79809 9.84416 6.00609C10.2015 6.21409 10.4842 6.49675 10.6922 6.85409C10.9002 7.21142 11.0042 7.60342 11.0042 8.03009C11.0042 8.45675 10.9002 8.84875 10.6922 9.20609C10.4842 9.56342 10.1988 9.84609 9.83616 10.0541C9.47349 10.2621 9.08416 10.3661 8.66816 10.3661ZM13.2442 4.28609C13.2442 4.52075 13.1615 4.72075 12.9962 4.88609C12.8308 5.05142 12.6308 5.13409 12.3962 5.13409C12.1615 5.13409 11.9642 5.05142 11.8042 4.88609C11.6442 4.72075 11.5642 4.52075 11.5642 4.28609C11.5642 4.05142 11.6442 3.85408 11.8042 3.69409C11.9642 3.53409 12.1615 3.45409 12.3962 3.45409C12.6308 3.45409 12.8308 3.53409 12.9962 3.69409C13.1615 3.85408 13.2442 4.05142 13.2442 4.28609ZM15.6122 5.13409C15.5908 4.52609 15.5002 3.99809 15.3402 3.55009C15.1588 3.03808 14.8735 2.59009 14.4842 2.20609C14.0948 1.82209 13.6442 1.53942 13.1322 1.35809C12.6842 1.19808 12.1562 1.10209 11.5482 1.07009C10.9722 1.03808 10.0095 1.02209 8.66016 1.02209C7.31082 1.02209 6.34816 1.03808 5.77216 1.07009C5.15349 1.10209 4.62549 1.19808 4.18816 1.35809C3.67616 1.53942 3.22816 1.82209 2.84416 2.20609C2.46016 2.59009 2.17749 3.03808 1.99616 3.55009C1.82549 3.99809 1.72949 4.52609 1.70816 5.13409C1.67616 5.71009 1.66016 6.67275 1.66016 8.02209C1.66016 9.37142 1.67616 10.3341 1.70816 10.9101C1.72949 11.5181 1.82016 12.0461 1.98016 12.4941C2.16149 13.0061 2.44949 13.4594 2.84416 13.8541C3.23882 14.2488 3.69216 14.5314 4.20416 14.7021C4.63082 14.8621 5.15349 14.9528 5.77216 14.9741C6.34816 15.0168 7.31082 15.0381 8.66016 15.0381C10.0095 15.0381 10.9722 15.0168 11.5482 14.9741C12.1562 14.9528 12.6842 14.8621 13.1322 14.7021C13.6442 14.5208 14.0948 14.2354 14.4842 13.8461C14.8735 13.4568 15.1588 13.0061 15.3402 12.4941C15.5002 12.0461 15.5908 11.5181 15.6122 10.9101C15.6442 10.3341 15.6602 9.37409 15.6602 8.03009C15.6602 6.68609 15.6442 5.72075 15.6122 5.13409ZM14.1242 12.1581C14.0068 12.4568 13.8335 12.7234 13.6042 12.9581C13.3748 13.1928 13.1055 13.3688 12.7962 13.4861C12.4442 13.6248 11.8735 13.7154 11.0842 13.7581C10.6362 13.7794 9.99082 13.7848 9.14816 13.7741H8.18816C7.34549 13.7848 6.70016 13.7794 6.25216 13.7581C5.45216 13.7154 4.88149 13.6248 4.54016 13.4861C4.23082 13.3688 3.96149 13.1954 3.73216 12.9661C3.50282 12.7368 3.32949 12.4674 3.21216 12.1581C3.07349 11.8061 2.98282 11.2354 2.94016 10.4461C2.91882 9.99809 2.91349 9.35275 2.92416 8.51009V7.55009C2.91349 6.70742 2.91882 6.06209 2.94016 5.61409C2.98282 4.81409 3.07349 4.24342 3.21216 3.90209C3.32949 3.59275 3.50282 3.32342 3.73216 3.09409C3.96149 2.86475 4.23082 2.69142 4.54016 2.57409C4.88149 2.43542 5.44682 2.34475 6.23616 2.30208C6.68416 2.28075 7.33482 2.27542 8.18816 2.28609H9.14816C9.99082 2.27542 10.6362 2.28075 11.0842 2.30208C11.8735 2.34475 12.4442 2.43542 12.7962 2.57409C13.1055 2.69142 13.3748 2.86475 13.6042 3.09409C13.8335 3.32342 14.0068 3.59275 14.1242 3.90209C14.2628 4.24342 14.3535 4.80875 14.3962 5.59809C14.4175 6.04609 14.4228 6.69675 14.4122 7.55009V8.51009C14.4228 9.35275 14.4175 9.99809 14.3962 10.4461C14.3535 11.2354 14.2628 11.8061 14.1242 12.1581Z" fill="#FD1D1D"/>
</svg>
