<svg width="64" height="16" viewBox="0 0 64 16" fill="none" xmlns="http://www.w3.org/2000/svg">
<g clip-path="url(#clip0_6314_5110)">
<mask id="mask0_6314_5110" style="mask-type:luminance" maskUnits="userSpaceOnUse" x="0" y="0" width="64" height="15">
<path d="M63.2 0.740234H0.5V14.7402H63.2V0.740234Z" fill="white"/>
</mask>
<g mask="url(#mask0_6314_5110)">
<path d="M11.5993 0.740234H8.59922C8.59922 3.24023 7.39922 5.54023 5.39922 7.04023L4.19922 8.04023L8.89922 14.4402H12.7993L8.39922 8.54023C10.4993 6.54023 11.5993 3.74023 11.5993 0.740234Z" fill="black"/>
<path d="M3.79922 0.740234H0.699219V14.4402H3.79922V0.740234Z" fill="black"/>
<path d="M16.6992 0.740234H13.6992V14.4402H16.6992V0.740234Z" fill="black"/>
<path d="M42.5984 4.74023C41.4984 4.74023 40.3984 5.04023 39.6984 6.04023V5.04023H36.8984V14.4402H39.7984V9.44023C39.7984 8.04023 40.7984 7.34023 41.8984 7.34023C43.0984 7.34023 43.8984 8.04023 43.8984 9.44023V14.4402H46.6984V8.44023C46.5984 6.24023 44.8984 4.74023 42.5984 4.74023Z" fill="black"/>
<path d="M25.6008 5.04023V5.64023C24.8008 5.04023 23.8008 4.74023 22.8008 4.74023C20.0008 4.74023 17.8008 6.94023 17.8008 9.74023C17.8008 12.5402 20.0008 14.7402 22.8008 14.7402C23.8008 14.7402 24.8008 14.4402 25.6008 13.8402V14.4402H28.4008V5.04023H25.6008ZM23.0008 12.1402C21.6008 12.1402 20.4008 11.0402 20.4008 9.74023C20.4008 8.44023 21.5008 7.34023 23.0008 7.34023C24.5008 7.34023 25.6008 8.44023 25.6008 9.74023C25.6008 11.0402 24.4008 12.1402 23.0008 12.1402Z" fill="black"/>
<path d="M32.7984 6.24028V5.04028H29.8984V14.4403H32.7984V10.0403C32.7984 8.54028 34.3984 7.74028 35.4984 7.74028V5.04028C34.3984 5.04028 33.3984 5.44028 32.7984 6.24028Z" fill="black"/>
<path d="M55.3977 5.04023V5.64023C54.5977 5.04023 53.6977 4.74023 52.5977 4.74023C49.7977 4.74023 47.5977 6.94023 47.5977 9.74023C47.5977 12.5402 49.7977 14.7402 52.5977 14.7402C53.5977 14.7402 54.5977 14.4402 55.3977 13.8402V14.4402H58.1977V5.04023H55.3977ZM52.8977 12.1402C51.4977 12.1402 50.2977 11.0402 50.2977 9.74023C50.2977 8.44023 51.3977 7.34023 52.8977 7.34023C54.2977 7.34023 55.4977 8.44023 55.4977 9.74023C55.3977 11.0402 54.2977 12.1402 52.8977 12.1402Z" fill="black"/>
<path d="M60.3984 5.24028C60.3984 5.14028 60.2984 5.04028 60.1984 5.04028H59.8984V5.74028H59.9984V5.54028H60.0984L60.2984 5.74028H60.3984L60.2984 5.44028C60.3984 5.44028 60.3984 5.34028 60.3984 5.24028ZM60.1984 5.34028H60.0984V5.14028H60.1984C60.2984 5.14028 60.2984 5.14028 60.2984 5.24028C60.2984 5.34028 60.2984 5.34028 60.1984 5.34028Z" fill="black"/>
<path d="M60.2 4.74023C59.8 4.74023 59.5 5.04023 59.5 5.44023C59.5 5.84023 59.8 6.14023 60.2 6.14023C60.6 6.14023 60.9 5.84023 60.9 5.44023C60.9 5.04023 60.5 4.74023 60.2 4.74023ZM60.2 5.94023C59.9 5.94023 59.7 5.74023 59.7 5.34023C59.7 5.04023 59.9 4.74023 60.2 4.74023C60.5 4.74023 60.7 4.94023 60.7 5.34023C60.7 5.74023 60.4 5.94023 60.2 5.94023Z" fill="black"/>
<path d="M61.3 11.1401C60.3 11.1401 59.5 11.9401 59.5 12.9401C59.5 13.9401 60.3 14.7401 61.3 14.7401C62.3 14.7401 63.1 13.9401 63.1 12.9401C63.1 11.8401 62.3 11.1401 61.3 11.1401Z" fill="black"/>
</g>
</g>
<defs>
<clipPath id="clip0_6314_5110">
<rect width="64" height="15" fill="white" transform="translate(0 0.139893)"/>
</clipPath>
</defs>
</svg>
