<svg width="14" height="14" viewBox="0 0 14 14" fill="none" xmlns="http://www.w3.org/2000/svg">
<path d="M3.03766 13.655H0.322656V4.89503H3.03766V13.655ZM1.67266 3.69503C1.39266 3.69503 1.13016 3.62253 0.885156 3.47753C0.640156 3.33253 0.447656 3.14003 0.307656 2.90003C0.167656 2.66003 0.0976562 2.39503 0.0976562 2.10503C0.0976562 1.81503 0.167656 1.55003 0.307656 1.31003C0.447656 1.07003 0.637656 0.88003 0.877656 0.740029C1.11766 0.60003 1.38266 0.530029 1.67266 0.530029C1.96266 0.530029 2.22766 0.60003 2.46766 0.740029C2.70766 0.88003 2.89766 1.07003 3.03766 1.31003C3.17766 1.55003 3.24766 1.81503 3.24766 2.10503C3.24766 2.39503 3.17766 2.66003 3.03766 2.90003C2.89766 3.14003 2.70516 3.33253 2.46016 3.47753C2.21516 3.62253 1.95266 3.69503 1.67266 3.69503ZM13.2227 13.655H10.5077V9.39503C10.5077 8.93503 10.4877 8.58503 10.4477 8.34503C10.3877 7.95503 10.2627 7.65503 10.0727 7.44503C9.85266 7.19503 9.52766 7.07003 9.09766 7.07003C8.44766 7.07003 7.99766 7.30003 7.74766 7.76003C7.55766 8.11003 7.46266 8.63003 7.46266 9.32003V13.655H4.74766V4.89503H7.35766V6.08003H7.38766C7.58766 5.70003 7.89766 5.38003 8.31766 5.12003C8.79766 4.82003 9.34766 4.67003 9.96766 4.67003C10.8377 4.67003 11.5277 4.85503 12.0377 5.22503C12.4877 5.55503 12.8027 6.05003 12.9827 6.71003C13.1427 7.26003 13.2227 7.97003 13.2227 8.84003V13.655Z" fill="#0077B5"/>
</svg>
