<svg width="18" height="18" viewBox="0 0 18 18" fill="none" xmlns="http://www.w3.org/2000/svg">
<g clip-path="url(#clip0_6314_7054)">
<path d="M11.1492 8.0871H6.74616V3.6161C6.74616 3.46877 6.69516 3.33844 6.59316 3.2251C6.49116 3.11177 6.35516 3.0551 6.18516 3.0551C6.01516 3.0551 5.87916 3.11177 5.77716 3.2251C5.67516 3.33844 5.62416 3.46877 5.62416 3.6161V8.0191H1.22116C1.07382 8.0191 0.94349 8.0701 0.830156 8.1721C0.716823 8.2741 0.660156 8.41294 0.660156 8.5886C0.660156 8.76427 0.711156 8.90027 0.813156 8.9966C0.915156 9.09294 1.05116 9.1411 1.22116 9.1411H5.62416V13.5441C5.62416 13.6914 5.67516 13.8218 5.77716 13.9351C5.87916 14.0484 6.01799 14.1051 6.19366 14.1051C6.36932 14.1051 6.50532 14.0541 6.60166 13.9521C6.69799 13.8501 6.74616 13.7141 6.74616 13.5441V9.1411H11.1492C11.2965 9.1411 11.4268 9.0901 11.5402 8.9881C11.6535 8.8861 11.7102 8.7501 11.7102 8.5801C11.7102 8.4101 11.6563 8.28544 11.5487 8.2061C11.441 8.12677 11.3078 8.0871 11.1492 8.0871Z" fill="#030712"/>
</g>
<defs>
<clipPath id="clip0_6314_7054">
<rect width="17" height="17" fill="white" transform="matrix(1 0 0 -1 0.5 17.0801)"/>
</clipPath>
</defs>
</svg>
