<svg width="18" height="18" viewBox="0 0 18 18" fill="none" xmlns="http://www.w3.org/2000/svg">
<g clip-path="url(#clip0_6314_7048)">
<path d="M11.1492 8.08711H1.22116C1.07382 8.08711 0.94349 8.13811 0.830156 8.24011C0.716823 8.34211 0.660156 8.48094 0.660156 8.65661C0.660156 8.83227 0.711156 8.96827 0.813156 9.06461C0.915156 9.16094 1.05116 9.20911 1.22116 9.20911H11.1492C11.2965 9.20911 11.4268 9.15811 11.5402 9.05611C11.6535 8.95411 11.7102 8.81811 11.7102 8.64811C11.7102 8.47811 11.6535 8.34211 11.5402 8.24011C11.4268 8.13811 11.2965 8.08711 11.1492 8.08711Z" fill="#030712"/>
</g>
<defs>
<clipPath id="clip0_6314_7048">
<rect width="17" height="17" fill="white" transform="matrix(1 0 0 -1 0.5 17.0801)"/>
</clipPath>
</defs>
</svg>
