<svg width="53" height="16" viewBox="0 0 53 16" fill="none" xmlns="http://www.w3.org/2000/svg">
<g clip-path="url(#clip0_6314_5093)">
<mask id="mask0_6314_5093" style="mask-type:luminance" maskUnits="userSpaceOnUse" x="0" y="0" width="53" height="15">
<path d="M52.5 0.740234H0V14.7402H52.5V0.740234Z" fill="white"/>
</mask>
<g mask="url(#mask0_6314_5093)">
<path d="M6.639 0.852783H2.614C2.339 0.852783 2.1015 1.05277 2.064 1.32777L0.438998 11.6277C0.401498 11.8277 0.563998 12.0152 0.776498 12.0152H2.7015C2.9765 12.0152 3.214 11.8153 3.2515 11.5403L3.689 8.76527C3.7265 8.49027 3.964 8.29028 4.239 8.29028H5.5015C8.1515 8.29028 9.6765 7.01529 10.0765 4.46529C10.2515 3.35279 10.089 2.47778 9.564 1.86528C8.989 1.21528 7.9765 0.852783 6.639 0.852783ZM7.1015 4.62778C6.8765 6.06528 5.7765 6.06528 4.714 6.06528H4.1015L4.5265 3.37778C4.5515 3.21528 4.689 3.09029 4.8515 3.09029H5.1265C5.8515 3.09029 6.539 3.09028 6.889 3.50278C7.114 3.75278 7.1765 4.11528 7.1015 4.62778Z" fill="#283B82"/>
<path d="M18.6523 4.57788H16.7273C16.5648 4.57788 16.4273 4.70289 16.4023 4.86539L16.3148 5.4029L16.1773 5.20288C15.7648 4.60288 14.8273 4.39038 13.9023 4.39038C11.7773 4.39038 9.96476 6.00288 9.60226 8.26538C9.41476 9.39038 9.67726 10.4654 10.3148 11.2279C10.9023 11.9154 11.7398 12.2028 12.7398 12.2028C14.4523 12.2028 15.4023 11.1029 15.4023 11.1029L15.3148 11.6403C15.2773 11.8403 15.4398 12.0279 15.6398 12.0279H17.3773C17.6523 12.0279 17.8898 11.8279 17.9273 11.5529L18.9648 4.9654C19.0148 4.7654 18.8523 4.57788 18.6523 4.57788ZM15.9648 8.32788C15.7773 9.42788 14.9023 10.1654 13.7898 10.1654C13.2273 10.1654 12.7898 9.99038 12.5023 9.64038C12.2148 9.30288 12.1148 8.82789 12.2023 8.29039C12.3773 7.20289 13.2648 6.44039 14.3648 6.44039C14.9148 6.44039 15.3523 6.6279 15.6523 6.9654C15.9273 7.3029 16.0523 7.79038 15.9648 8.32788Z" fill="#283B82"/>
<path d="M28.9013 4.57764H26.9638C26.7763 4.57764 26.6013 4.66514 26.5013 4.82764L23.8388 8.75265L22.7138 4.97765C22.6388 4.74015 22.4263 4.57764 22.1763 4.57764H20.2763C20.0513 4.57764 19.8888 4.80264 19.9638 5.01514L22.0888 11.2651L20.0888 14.0901C19.9263 14.3151 20.0888 14.6151 20.3638 14.6151H22.3013C22.4888 14.6151 22.6513 14.5276 22.7638 14.3776L29.2013 5.09016C29.3263 4.87766 29.1638 4.57764 28.9013 4.57764Z" fill="#283B82"/>
<path d="M35.3031 0.852783H31.2781C31.0031 0.852783 30.7656 1.05277 30.7281 1.32777L29.1031 11.6277C29.0656 11.8277 29.2281 12.0152 29.4281 12.0152H31.5031C31.6906 12.0152 31.8531 11.8777 31.8906 11.6902L32.3531 8.76527C32.3906 8.49027 32.6281 8.29028 32.9031 8.29028H34.1781C36.8281 8.29028 38.3531 7.01529 38.7531 4.46529C38.9281 3.35279 38.7656 2.47778 38.2406 1.86528C37.6656 1.21528 36.6531 0.852783 35.3031 0.852783ZM35.7656 4.62778C35.5406 6.06528 34.4406 6.06528 33.3781 6.06528H32.7781L33.2031 3.37778C33.2281 3.21528 33.3656 3.09029 33.5281 3.09029H33.8031C34.5281 3.09029 35.2156 3.09028 35.5656 3.50278C35.7781 3.75278 35.8406 4.11528 35.7656 4.62778Z" fill="#469BDB"/>
<path d="M47.3124 4.57788H45.3874C45.2249 4.57788 45.0874 4.70289 45.0624 4.86539L44.9749 5.4029L44.8374 5.20288C44.4249 4.60288 43.4874 4.39038 42.5624 4.39038C40.4374 4.39038 38.6249 6.00288 38.2624 8.26538C38.0749 9.39038 38.3374 10.4654 38.9749 11.2279C39.5624 11.9154 40.3999 12.2028 41.3999 12.2028C43.1124 12.2028 44.0624 11.1029 44.0624 11.1029L43.9749 11.6403C43.9374 11.8403 44.0999 12.0279 44.3124 12.0279H46.0499C46.3249 12.0279 46.5624 11.8279 46.5999 11.5529L47.6374 4.9654C47.6749 4.7654 47.5124 4.57788 47.3124 4.57788ZM44.6249 8.32788C44.4374 9.42788 43.5624 10.1654 42.4499 10.1654C41.8874 10.1654 41.4499 9.99038 41.1624 9.64038C40.8749 9.30288 40.7749 8.82789 40.8624 8.29039C41.0374 7.20289 41.9249 6.44039 43.0249 6.44039C43.5749 6.44039 44.0124 6.6279 44.3124 6.9654C44.5999 7.3029 44.7124 7.79038 44.6249 8.32788Z" fill="#469BDB"/>
<path d="M49.5773 1.14011L47.9273 11.6401C47.8898 11.8401 48.0523 12.0276 48.2523 12.0276H49.9148C50.1898 12.0276 50.4273 11.8276 50.4648 11.5526L52.0898 1.25262C52.1273 1.05262 51.9648 0.86512 51.7648 0.86512H49.9023C49.7523 0.85262 49.6148 0.977614 49.5773 1.14011Z" fill="#469BDB"/>
</g>
</g>
<defs>
<clipPath id="clip0_6314_5093">
<rect width="53" height="15" fill="white" transform="translate(0 0.139893)"/>
</clipPath>
</defs>
</svg>
