<svg width="26" height="26" viewBox="0 0 26 26" fill="none" xmlns="http://www.w3.org/2000/svg">
<path d="M22.3434 15.6262C21.13 15.4956 20.122 15.2249 19.3194 14.8142C18.7407 14.5902 18.148 14.5482 17.5414 14.6882C16.9347 14.8282 16.398 15.1036 15.9314 15.5142L14.8674 16.6902C12.5154 15.1596 10.574 13.2182 9.04338 10.8662L10.1074 9.80222C10.5554 9.35422 10.84 8.82689 10.9614 8.22022C11.0827 7.61356 11.0314 7.01156 10.8074 6.41422C10.4714 5.53689 10.238 4.52889 10.1074 3.39022C9.97672 2.62489 9.59872 1.98556 8.97338 1.47222C8.34805 0.95889 7.63405 0.702223 6.83138 0.702223H3.10738C2.52872 0.739556 2.01072 0.926224 1.55338 1.26222C1.09605 1.59822 0.741382 2.02756 0.489382 2.55022C0.237382 3.07289 0.130049 3.62356 0.167382 4.20222C0.354049 6.06889 0.764715 7.89356 1.39938 9.67622C2.03405 11.4589 2.87405 13.1342 3.91938 14.7022C5.78605 17.6516 8.19405 20.0596 11.1434 21.9262C12.73 22.9156 14.41 23.7276 16.1834 24.3622C17.9567 24.9969 19.7767 25.4356 21.6434 25.6782H22.0074C22.3994 25.6782 22.7914 25.5942 23.1834 25.4262C23.5754 25.2582 23.9207 25.0296 24.2194 24.7402C24.518 24.4509 24.7467 24.1102 24.9054 23.7182C25.064 23.3262 25.1434 22.9249 25.1434 22.5142V19.0142C25.1434 18.1556 24.882 17.4089 24.3594 16.7742C23.8367 16.1396 23.1647 15.7569 22.3434 15.6262ZM23.2674 18.9022V22.4022C23.2674 22.7942 23.118 23.1489 22.8194 23.4662C22.4834 23.7649 22.1287 23.9142 21.7554 23.9142H21.6434C19.926 23.7462 18.2554 23.3729 16.6314 22.7942C14.9514 22.1969 13.3927 21.4036 11.9554 20.4142C10.63 19.5556 9.39338 18.5522 8.24538 17.4042C7.09738 16.2562 6.08472 15.0102 5.20738 13.6662C4.27405 12.2102 3.51338 10.6609 2.92538 9.01822C2.33738 7.37556 1.93138 5.69556 1.70738 3.97822C1.76338 3.54889 1.93138 3.18956 2.21138 2.90022C2.49138 2.61089 2.82738 2.46622 3.21938 2.46622H6.83138C7.18605 2.46622 7.50805 2.59222 7.79738 2.84422C8.08672 3.09622 8.23138 3.39022 8.23138 3.72622C8.26872 4.21156 8.36205 4.75289 8.51138 5.35022C8.60472 5.72356 8.75405 6.26489 8.95938 6.97422L9.04338 7.22622C9.15538 7.52489 9.18338 7.80956 9.12738 8.08022C9.07138 8.35089 8.93138 8.57956 8.70738 8.76622L7.41938 10.1662C7.25138 10.2782 7.15338 10.4322 7.12538 10.6282C7.09738 10.8242 7.11138 11.0156 7.16738 11.2022C8.04472 12.7142 9.11338 14.1002 10.3734 15.3602C11.6334 16.6202 13.0194 17.6889 14.5314 18.5662C14.6994 18.6782 14.886 18.7156 15.0914 18.6782C15.2967 18.6409 15.4554 18.5569 15.5674 18.4262L17.1074 16.9142C17.294 16.7276 17.5367 16.5969 17.8354 16.5222C18.134 16.4476 18.3954 16.4662 18.6194 16.5782C19.702 17.0076 20.8687 17.2782 22.1194 17.3902C22.474 17.4462 22.7727 17.6282 23.0154 17.9362C23.258 18.2442 23.342 18.5662 23.2674 18.9022ZM14.8674 2.32622C16.3794 2.47556 17.7514 2.94222 18.9834 3.72622C20.2154 4.51022 21.2234 5.51822 22.0074 6.75022C22.7914 7.98222 23.258 9.35422 23.4074 10.8662C23.4074 11.0902 23.496 11.2816 23.6734 11.4402C23.8507 11.5989 24.0327 11.6782 24.2194 11.6782H24.3314C24.5554 11.6782 24.7467 11.5802 24.9054 11.3842C25.064 11.1882 25.1434 10.9689 25.1434 10.7262C24.9567 8.97156 24.3874 7.35689 23.4354 5.88222C22.5207 4.44489 21.3307 3.26889 19.8654 2.35422C18.4 1.43956 16.7807 0.888889 15.0074 0.702223C14.7647 0.702223 14.5454 0.781557 14.3494 0.940224C14.1534 1.09889 14.0554 1.28089 14.0554 1.48622C14.0554 1.69156 14.1347 1.88289 14.2934 2.06022C14.452 2.23756 14.6434 2.32622 14.8674 2.32622ZM14.0554 6.07822C13.9994 6.30222 14.046 6.51689 14.1954 6.72222C14.3447 6.92756 14.5314 7.05822 14.7554 7.11422C15.726 7.30089 16.5707 7.75822 17.2894 8.48622C18.008 9.21422 18.4887 10.0822 18.7314 11.0902C18.7874 11.3142 18.89 11.4869 19.0394 11.6082C19.1887 11.7296 19.3567 11.7902 19.5434 11.7902H19.6554C19.898 11.7342 20.0894 11.6036 20.2294 11.3982C20.3694 11.1929 20.4114 10.9689 20.3554 10.7262C20.1314 9.40089 19.5387 8.25289 18.5774 7.28222C17.616 6.31156 16.4634 5.67689 15.1194 5.37822C14.8767 5.32222 14.6527 5.35489 14.4474 5.47622C14.242 5.59756 14.1114 5.79822 14.0554 6.07822Z" fill="#111827"/>
</svg>
