<svg width="27" height="26" viewBox="0 0 27 26" fill="none" xmlns="http://www.w3.org/2000/svg">
<path d="M13.5556 11.102C12.7236 11.6393 11.8222 11.908 10.8516 11.908C10.2102 11.908 9.59056 11.7823 8.99256 11.531C8.39456 11.2797 7.8659 10.9287 7.40656 10.478C6.94723 10.0273 6.59623 9.50301 6.35356 8.90501C6.1109 8.30701 5.98956 7.68735 5.98956 7.04601C5.98956 6.04068 6.26256 5.13068 6.80856 4.31601C7.35456 3.50134 8.0739 2.90768 8.96656 2.53501C9.85923 2.16235 10.8082 2.07134 11.8136 2.26201C12.7496 2.43534 13.5729 2.87301 14.2836 3.57501C14.9942 4.27701 15.4406 5.10901 15.6226 6.07101C15.8046 7.03301 15.7136 7.97334 15.3496 8.89201C14.9856 9.81068 14.3876 10.5473 13.5556 11.102ZM12.3596 4.78401C11.9089 4.48935 11.4062 4.34201 10.8516 4.34201C10.1236 4.34201 9.48223 4.60201 8.92756 5.12201C8.40756 5.67668 8.14756 6.31801 8.14756 7.04601C8.14756 7.60068 8.29923 8.10334 8.60256 8.55401C8.9059 9.00468 9.3089 9.33401 9.81156 9.54201C10.3142 9.75001 10.8342 9.80201 11.3716 9.69801C11.9089 9.59401 12.3726 9.34701 12.7626 8.95701C13.1526 8.56701 13.3996 8.10334 13.5036 7.56601C13.6076 7.02868 13.5556 6.50868 13.3476 6.00601C13.1396 5.50335 12.8102 5.09601 12.3596 4.78401ZM3.96156 15.86C4.8629 14.9413 5.91156 14.235 7.10756 13.741C8.30356 13.247 9.55156 13 10.8516 13C12.1516 13 13.3996 13.247 14.5956 13.741C15.7916 14.235 16.8446 14.937 17.7546 15.847C18.6646 16.757 19.3666 17.81 19.8606 19.006C20.3546 20.202 20.6016 21.45 20.6016 22.75C20.6016 23.062 20.4889 23.322 20.2636 23.53C20.0382 23.738 19.7869 23.842 19.5096 23.842H14.1016C13.8069 23.842 13.5512 23.7337 13.3346 23.517C13.1179 23.3003 13.0096 23.0447 13.0096 22.75C13.0096 22.4553 13.1179 22.1997 13.3346 21.983C13.5512 21.7663 13.8069 21.658 14.1016 21.658H18.3656C18.2269 20.7567 17.9409 19.903 17.5076 19.097C17.0742 18.291 16.5109 17.5933 15.8176 17.004C15.1242 16.4147 14.3529 15.9597 13.5036 15.639C12.6542 15.3183 11.7702 15.158 10.8516 15.158C9.9329 15.158 9.0489 15.3183 8.19956 15.639C7.35023 15.9597 6.5789 16.4147 5.88556 17.004C5.19223 17.5933 4.6289 18.291 4.19556 19.097C3.76223 19.903 3.47623 20.7567 3.33756 21.658H7.60156C7.8789 21.658 8.1389 21.762 8.38156 21.97C8.58956 22.2127 8.69356 22.4727 8.69356 22.75C8.69356 23.0273 8.58956 23.2873 8.38156 23.53C8.1389 23.738 7.8789 23.842 7.60156 23.842H2.19356C1.91623 23.842 1.6649 23.738 1.43956 23.53C1.21423 23.322 1.10156 23.062 1.10156 22.75C1.10156 21.45 1.34856 20.2063 1.84256 19.019C2.33656 17.8317 3.0429 16.7787 3.96156 15.86Z" fill="#030712"/>
</svg>
