<svg width="20" height="20" viewBox="0 0 23 23" fill="none" xmlns="http://www.w3.org/2000/svg">
<path d="M18.3549 13.192C18.1642 13.192 17.9956 13.258 17.8489 13.39C17.7022 13.522 17.6289 13.698 17.6289 13.918V17.592C17.6289 17.9 17.5152 18.1604 17.2879 18.373C17.0606 18.5857 16.8076 18.692 16.5289 18.692H3.68091C3.37291 18.692 3.11257 18.5784 2.89991 18.351C2.68724 18.1237 2.58091 17.8707 2.58091 17.592V13.918C2.58091 13.7274 2.51491 13.5587 2.38291 13.412C2.25091 13.2654 2.07491 13.192 1.85491 13.192C1.63491 13.192 1.45891 13.2507 1.32691 13.368C1.19491 13.4854 1.12891 13.6394 1.12891 13.83V17.504C1.12891 17.9587 1.24257 18.3804 1.46991 18.769C1.69724 19.1577 2.00524 19.4694 2.39391 19.704C2.78257 19.9387 3.21157 20.056 3.68091 20.056H16.5289C16.9836 20.056 17.4052 19.9424 17.7939 19.715C18.1826 19.4877 18.4942 19.1797 18.7289 18.791C18.9636 18.4024 19.0809 17.9734 19.0809 17.504V13.83C19.0809 13.654 19.0076 13.5037 18.8609 13.379C18.7142 13.2544 18.5456 13.192 18.3549 13.192ZM5.99091 7.86803L9.37891 4.48003V13.83C9.37891 14.0207 9.44491 14.1894 9.57691 14.336C9.70891 14.4827 9.88857 14.556 10.1159 14.556C10.3432 14.556 10.5192 14.4937 10.6439 14.369C10.7686 14.2444 10.8309 14.0647 10.8309 13.83V4.48003L14.2409 7.86803C14.3582 7.98536 14.5049 8.04403 14.6809 8.04403C14.7689 8.04403 14.8569 8.0257 14.9449 7.98903C15.0329 7.95236 15.0989 7.91203 15.1429 7.86803C15.2896 7.73603 15.3629 7.57103 15.3629 7.37303C15.3629 7.17503 15.2896 7.0027 15.1429 6.85603L10.5669 2.28003C10.5376 2.2507 10.5009 2.22136 10.4569 2.19203C10.4129 2.1627 10.3909 2.13336 10.3909 2.10403C10.2002 2.00136 10.0169 2.00136 9.84091 2.10403C9.78224 2.10403 9.73457 2.12236 9.69791 2.15903C9.66124 2.1957 9.64291 2.23603 9.64291 2.28003L5.06691 6.85603C4.92024 7.0027 4.84691 7.17503 4.84691 7.37303C4.84691 7.57103 4.92024 7.73603 5.06691 7.86803C5.21357 8.00003 5.36757 8.0697 5.52891 8.07703C5.69024 8.08436 5.84424 8.0147 5.99091 7.86803Z" fill="#030712"/>
</svg>
