<svg width="13" height="6" viewBox="0 0 13 6" fill="none" xmlns="http://www.w3.org/2000/svg">
<path d="M12.8565 2.75796C12.8565 2.72996 12.8448 2.70429 12.8215 2.68096C12.7982 2.65763 12.7725 2.64596 12.7445 2.64596L10.4065 0.307959C10.3132 0.223959 10.2058 0.181959 10.0845 0.181959C9.96317 0.181959 9.85583 0.223959 9.7625 0.307959C9.66917 0.391959 9.62483 0.499293 9.6295 0.629959C9.63417 0.760626 9.6785 0.867959 9.7625 0.951959L11.3445 2.53396H0.7745C0.653167 2.53396 0.545833 2.57596 0.4525 2.65996C0.359167 2.74396 0.3125 2.85829 0.3125 3.00296C0.3125 3.14763 0.3545 3.25963 0.4385 3.33896C0.5225 3.41829 0.6345 3.45796 0.7745 3.45796H11.4005L9.8185 5.03996C9.7345 5.12396 9.6925 5.22896 9.6925 5.35496C9.6925 5.48096 9.7345 5.59063 9.8185 5.68396C9.8465 5.71196 9.8885 5.73763 9.9445 5.76096C10.0005 5.78429 10.0565 5.79596 10.1125 5.79596C10.1685 5.79596 10.2245 5.78429 10.2805 5.76096C10.3365 5.73763 10.3785 5.71196 10.4065 5.68396L12.7445 3.34596C12.7632 3.32729 12.7818 3.30396 12.8005 3.27596C12.8192 3.24796 12.8378 3.23396 12.8565 3.23396C12.8845 3.11263 12.8985 3.01929 12.8985 2.95396C12.8985 2.88863 12.8845 2.82329 12.8565 2.75796Z" fill="#212529"/>
</svg>
