<svg width="41" height="16" viewBox="0 0 41 16" fill="none" xmlns="http://www.w3.org/2000/svg">
<g clip-path="url(#clip0_6314_5104)">
<mask id="mask0_6314_5104" style="mask-type:luminance" maskUnits="userSpaceOnUse" x="0" y="0" width="41" height="15">
<path d="M40.5 0.740234H0.5V14.7402H40.5V0.740234Z" fill="white"/>
</mask>
<g mask="url(#mask0_6314_5104)">
<path d="M29.3 4.14018C30.2 4.14018 30.9 3.44018 30.9 2.54018C30.9 1.64018 30.2 0.940186 29.3 0.940186C28.4 0.940186 27.7 1.64018 27.7 2.54018C27.6 3.44018 28.3 4.14018 29.3 4.14018C29.3 4.24018 29.3 4.24018 29.3 4.14018ZM16.7 5.04018C16.6 5.24018 16.1 6.74018 14.8 8.34018V1.64018L11.4 2.34018V14.4402H14.8V10.7402C15.8 12.2402 16.3 14.4402 16.3 14.4402H20.4C20 12.7402 18.2 9.64018 18.2 9.64018C19.3 8.24018 20.1 6.74018 20.6 5.14018L16.7 5.04018ZM25.7 4.94018C22.6 5.04018 21.1 6.44018 21.1 9.14018V14.4402H24.5V10.1402C24.5 8.54018 24.7 7.84018 26.7 7.74018V5.04018C26.3 4.94018 25.7 4.94018 25.7 4.94018ZM5.6 6.44018C5.2 6.44018 4.2 6.34018 4.2 5.44018C4.2 4.34018 5.6 4.34018 6.1 4.34018C7 4.34018 8.2 4.64018 9.1 4.84018C9.4 4.94018 9.7 5.04018 10 5.14018V2.34018H9.9C8.9 1.94018 7.7 1.64018 5.5 1.64018C1.8 1.64018 0.5 3.84018 0.5 5.74018C0.5 6.84018 1 9.34018 5.3 9.64018C5.7 9.64018 6.6 9.74018 6.6 10.6402C6.6 11.3402 5.8 11.8402 4.5 11.8402C3 11.8402 1.6 11.4402 0.8 11.1402V14.1402C2.1 14.4402 3.5 14.6402 5.2 14.6402C8.9 14.6402 10.5 12.5402 10.5 10.5402C10.5 8.14018 8.7 6.64018 5.6 6.44018ZM27.6 14.4402H30.9V5.04018H27.6V14.4402ZM37.2 2.24018V14.4402H40.5V1.64018L37.2 2.24018ZM32.3 2.24018L35.6 1.64018V14.4402H32.3V2.24018Z" fill="#862565"/>
</g>
</g>
<defs>
<clipPath id="clip0_6314_5104">
<rect width="41" height="15" fill="white" transform="translate(0 0.139893)"/>
</clipPath>
</defs>
</svg>
