<svg width="12" height="12" viewBox="0 0 12 12" fill="none" xmlns="http://www.w3.org/2000/svg">
<path d="M6.41846 1.015C6.3598 0.897671 6.27546 0.804171 6.16546 0.734504C6.05546 0.664837 5.93446 0.630004 5.80246 0.630004C5.67046 0.630004 5.54763 0.664837 5.43396 0.734504C5.32029 0.804171 5.23413 0.897671 5.17546 1.015L3.80046 3.864L0.709462 4.315C0.584795 4.32967 0.471128 4.37917 0.368462 4.4635C0.265795 4.54784 0.196128 4.65234 0.159462 4.777C0.122795 4.90167 0.119128 5.02817 0.148462 5.1565C0.177795 5.28484 0.240128 5.393 0.335462 5.481L2.56846 7.703L2.04046 10.827C2.01846 10.959 2.03313 11.0837 2.08446 11.201C2.1358 11.3183 2.2128 11.4173 2.31546 11.498C2.41813 11.5787 2.53546 11.6227 2.66746 11.63C2.79946 11.6373 2.92413 11.6117 3.04146 11.553L5.80246 10.079L8.56346 11.553C8.68079 11.6117 8.80363 11.6373 8.93196 11.63C9.0603 11.6227 9.17946 11.5805 9.28946 11.5035C9.39946 11.4265 9.4783 11.3275 9.52596 11.2065C9.57363 11.0855 9.58646 10.959 9.56446 10.827L9.02546 7.703L11.2695 5.481C11.3648 5.393 11.4271 5.28484 11.4565 5.1565C11.4858 5.02817 11.4785 4.90167 11.4345 4.777C11.3905 4.65234 11.3208 4.54784 11.2255 4.4635C11.1301 4.37917 11.0165 4.32967 10.8845 4.315L7.80446 3.864L6.41846 1.015Z" fill="#FACC15" />
</svg>
