<svg width="15" height="16" viewBox="0 0 15 16" fill="none" xmlns="http://www.w3.org/2000/svg">
<g clip-path="url(#clip0_6314_5068)">
<path d="M13.6152 4.97012C13.6252 5.06012 13.6302 5.19512 13.6302 5.37512C13.6302 6.41512 13.4402 7.44012 13.0602 8.45012C12.6702 9.51012 12.1102 10.4501 11.3802 11.2701C10.6002 12.1501 9.68516 12.8351 8.63516 13.3251C7.49516 13.8551 6.24516 14.1201 4.88516 14.1201C4.02516 14.1201 3.19516 14.0026 2.39516 13.7676C1.59516 13.5326 0.850156 13.1901 0.160156 12.7401C0.420156 12.7701 0.670156 12.7851 0.910156 12.7851C1.61016 12.7851 2.28766 12.6701 2.94266 12.4401C3.59766 12.2101 4.19016 11.8851 4.72016 11.4651C4.05016 11.4551 3.45266 11.2501 2.92766 10.8501C2.40266 10.4501 2.04016 9.94512 1.84016 9.33512C2.04016 9.36512 2.23516 9.38012 2.42516 9.38012C2.72516 9.38012 2.99516 9.34512 3.23516 9.27512C2.76516 9.18512 2.34516 8.99512 1.97516 8.70512C1.60516 8.41512 1.31266 8.05762 1.09766 7.63262C0.882656 7.20762 0.775156 6.75012 0.775156 6.26012V6.21512C1.18516 6.45512 1.64516 6.58512 2.15516 6.60512C1.73516 6.33512 1.40266 5.97262 1.15766 5.51762C0.912656 5.06262 0.790156 4.57512 0.790156 4.05512C0.790156 3.49512 0.930156 2.97512 1.21016 2.49512C1.98016 3.44512 2.90516 4.20012 3.98516 4.76012C5.09516 5.33012 6.28016 5.65012 7.54016 5.72012C7.49016 5.47012 7.46516 5.23512 7.46516 5.01512C7.46516 4.45512 7.60266 3.94012 7.87766 3.47012C8.15266 3.00012 8.52516 2.62762 8.99516 2.35262C9.46516 2.07762 9.98016 1.94012 10.5402 1.94012C10.9802 1.94012 11.3952 2.02762 11.7852 2.20262C12.1752 2.37762 12.5102 2.61512 12.7902 2.91512C13.5002 2.77512 14.1502 2.52512 14.7402 2.16512C14.6302 2.52512 14.4577 2.85012 14.2227 3.14012C13.9877 3.43012 13.7102 3.67012 13.3902 3.86012C13.9602 3.80012 14.5502 3.64012 15.1602 3.38012C14.7402 4.00012 14.2252 4.53012 13.6152 4.97012Z" fill="#1DA1F2"/>
</g>
<defs>
<clipPath id="clip0_6314_5068">
<rect width="15" height="15" fill="white" transform="matrix(1 0 0 -1 0 15.53)"/>
</clipPath>
</defs>
</svg>
