<svg width="36" height="14" viewBox="0 0 36 14" fill="none" xmlns="http://www.w3.org/2000/svg">
<g clip-path="url(#clip0_6314_5079)">
<mask id="mask0_6314_5079" style="mask-type:luminance" maskUnits="userSpaceOnUse" x="0" y="0" width="36" height="13">
<path d="M36 0.740234H0V12.7402H36V0.740234Z" fill="white"/>
</mask>
<g mask="url(#mask0_6314_5079)">
<path d="M31.6008 5.04009L32.2008 8.24009H29.8008L31.0008 5.14009L31.2008 4.54009L31.3008 4.04009C31.3008 4.14009 31.6008 5.04009 31.6008 5.04009ZM8.90078 12.1401L13.3008 1.24009H10.3008L7.60078 8.74009L7.30078 7.14009L6.30078 2.14009C6.20078 1.54009 5.70078 1.14009 4.90078 1.14009H0.400781L0.300781 1.34009C1.50078 1.54009 2.40078 1.94009 3.30078 2.54009L5.90078 12.2401H9.00078L8.90078 12.1401ZM15.6008 12.1401L17.4008 1.24009H14.6008L12.8008 12.3401H15.6008V12.1401ZM25.7008 8.64009C25.7008 7.44009 24.9008 6.44009 23.3008 5.54009C22.1008 5.04009 21.5008 4.64009 21.5008 4.24009C21.5008 3.64009 22.1008 3.34009 23.3008 3.34009C24.0008 3.34009 24.7008 3.34009 25.3008 3.84009H25.7008L26.0008 1.34009C25.1008 0.940088 24.3008 0.840088 23.4008 0.840088C22.5008 0.840088 21.7008 1.04009 21.0008 1.34009C20.3008 1.64009 19.7008 2.04009 19.2008 2.64009C18.8008 3.24009 18.6008 3.84009 18.6008 4.54009C18.6008 5.74009 19.4008 6.74009 21.2008 7.64009C22.1008 8.14009 22.6008 8.54008 22.6008 8.94008C22.6008 9.64008 22.0008 10.1401 20.9008 10.1401C20.0008 10.1401 19.0008 9.94009 18.2008 9.54009L17.8008 9.34009L17.3008 11.7401C18.3008 12.1401 19.4008 12.4401 20.5008 12.4401C21.8008 12.5401 23.0008 12.1401 24.0008 11.5401C25.2008 10.7401 25.7008 9.74009 25.7008 8.64009ZM35.7008 12.1401L33.4008 1.24009H31.2008C30.5008 1.24009 30.0008 1.44009 29.8008 2.14009L25.5008 12.3401H28.5008L29.0008 10.7401H32.8008L33.2008 12.4401H35.8008V12.1401H35.7008Z" fill="url(#paint0_linear_6314_5079)"/>
</g>
</g>
<defs>
<linearGradient id="paint0_linear_6314_5079" x1="1.58268" y1="6.64849" x2="35.2457" y2="6.64849" gradientUnits="userSpaceOnUse">
<stop stop-color="#2C3572"/>
<stop offset="1" stop-color="#3C62AB"/>
</linearGradient>
<clipPath id="clip0_6314_5079">
<rect width="36" height="13" fill="white" transform="translate(0 0.139893)"/>
</clipPath>
</defs>
</svg>
