<svg width="26" height="27" viewBox="0 0 26 27" fill="none" xmlns="http://www.w3.org/2000/svg">
<path d="M18.6982 5.23403L10.0402 1.98403C9.78016 1.88003 9.59816 1.88003 9.49416 1.98403L0.810156 5.23403C0.602156 5.28603 0.441823 5.3857 0.329156 5.53303C0.21649 5.68036 0.160156 5.83203 0.160156 5.98803V13.58C0.160156 15.5214 0.836156 17.428 2.18816 19.3C3.21082 20.6694 4.55416 21.978 6.21816 23.226C7.10216 23.8847 8.06416 24.5 9.10416 25.072L9.26016 25.176C9.34682 25.2454 9.45949 25.28 9.59816 25.28C9.73682 25.28 9.84082 25.2454 9.91016 25.176L10.0402 25.098C11.0282 24.5607 11.9642 23.9627 12.8482 23.304C14.5468 22.056 15.9075 20.7387 16.9302 19.352C18.3168 17.4627 19.0102 15.5387 19.0102 13.58V5.98803C19.1142 5.83203 19.1315 5.68036 19.0622 5.53303C18.9928 5.3857 18.8715 5.28603 18.6982 5.23403ZM17.5022 13.58C17.5022 15.14 16.9388 16.7 15.8122 18.26C14.9455 19.4387 13.7928 20.574 12.3542 21.666C11.4355 22.3594 10.5168 22.9487 9.59816 23.434C8.71416 22.966 7.79549 22.3767 6.84216 21.666C5.43816 20.574 4.31149 19.4387 3.46216 18.26C2.35282 16.7 1.79816 15.14 1.79816 13.58V6.53403L9.70216 3.62203L17.5022 6.53403V13.58ZM6.99816 13.034C6.82482 12.878 6.62549 12.8 6.40016 12.8C6.17482 12.8 5.97549 12.878 5.80216 13.034C5.62882 13.19 5.54649 13.385 5.55516 13.619C5.56382 13.853 5.64616 14.0567 5.80216 14.23L7.96016 16.388C8.15082 16.544 8.33282 16.622 8.50616 16.622C8.61016 16.622 8.71416 16.596 8.81816 16.544C8.92216 16.492 9.00016 16.44 9.05216 16.388L13.3942 12.072C13.5502 11.8987 13.6282 11.695 13.6282 11.461C13.6282 11.227 13.5502 11.032 13.3942 10.876C13.2382 10.72 13.0388 10.6377 12.7962 10.629C12.5535 10.6204 12.3542 10.7027 12.1982 10.876L8.61016 14.542L6.99816 13.034Z" fill="#6B7280"/>
</svg>
