<svg width="23" height="23" viewBox="0 0 23 23" fill="none" xmlns="http://www.w3.org/2000/svg">
<g clip-path="url(#clip0_6314_4356)">
<path d="M13.4901 3.58997C12.7274 3.58997 11.9977 3.75497 11.3011 4.08497C10.6044 4.41497 10.0214 4.85863 9.55206 5.41597C9.0974 4.8293 8.5254 4.3783 7.83606 4.06297C7.14673 3.74763 6.40606 3.58997 5.61406 3.58997C4.7194 3.58997 3.8834 3.80997 3.10606 4.24997C2.35806 4.6753 1.76406 5.25463 1.32406 5.98797C0.884062 6.7213 0.664062 7.5133 0.664062 8.36397C0.664062 9.96263 1.09673 11.5393 1.96206 13.094C2.6514 14.3406 3.61206 15.5506 4.84406 16.724C5.72406 17.5746 6.70673 18.3593 7.79206 19.078C8.46673 19.5473 8.9654 19.8553 9.28806 20.002C9.34673 20.0606 9.43473 20.09 9.55206 20.09C9.6694 20.09 9.79406 20.0606 9.92606 20.002C10.2781 19.826 10.7767 19.518 11.4221 19.078C12.4927 18.3593 13.4754 17.5746 14.3701 16.724C15.5874 15.5506 16.5407 14.3406 17.2301 13.094C18.0954 11.5393 18.5281 9.96263 18.5281 8.36397C18.5281 7.5133 18.3007 6.7213 17.8461 5.98797C17.3914 5.25463 16.7754 4.67163 15.9981 4.23897C15.2207 3.8063 14.3847 3.58997 13.4901 3.58997ZM9.55206 18.616C8.6134 18.044 7.74806 17.4353 6.95606 16.79C5.56273 15.6606 4.46273 14.4946 3.65606 13.292C2.57073 11.6933 2.02806 10.08 2.02806 8.45197C2.02806 7.8213 2.19306 7.2383 2.52306 6.70297C2.85306 6.16763 3.29306 5.7423 3.84306 5.42697C4.39306 5.11163 4.9834 4.95397 5.61406 4.95397C6.3474 4.95397 7.01106 5.14463 7.60506 5.52597C8.19906 5.9073 8.6354 6.42063 8.91406 7.06597C8.97273 7.21263 9.0864 7.3153 9.25506 7.37397C9.42373 7.43263 9.59973 7.43263 9.78306 7.37397C9.9664 7.3153 10.1021 7.21263 10.1901 7.06597C10.4687 6.42063 10.9087 5.9073 11.5101 5.52597C12.1114 5.14463 12.7714 4.95397 13.4901 4.95397C14.1501 4.95397 14.7551 5.11163 15.3051 5.42697C15.8551 5.7423 16.2877 6.16763 16.6031 6.70297C16.9184 7.2383 17.0761 7.8213 17.0761 8.45197C17.0761 10.0506 16.5334 11.6493 15.4481 13.248C14.6267 14.4506 13.5267 15.624 12.1481 16.768C11.3267 17.4426 10.4614 18.0586 9.55206 18.616Z" fill="#030712"/>
</g>
<defs>
<clipPath id="clip0_6314_4356">
<rect width="21.69" height="22" fill="white" transform="matrix(1 0 0 -1 0.660156 22.84)"/>
</clipPath>
</defs>
</svg>
